<svg width="15" height="15" viewBox="0 0 15 15" fill="none" xmlns="http://www.w3.org/2000/svg">
<g clip-path="url(#clip0_6_234)">
<path d="M4.86035 11.4082C4.86035 11.4668 4.79297 11.5137 4.70801 11.5137C4.61133 11.5225 4.54395 11.4756 4.54395 11.4082C4.54395 11.3496 4.61133 11.3027 4.69629 11.3027C4.78418 11.2939 4.86035 11.3408 4.86035 11.4082ZM3.94922 11.2764C3.92871 11.335 3.9873 11.4023 4.0752 11.4199C4.15137 11.4492 4.23926 11.4199 4.25684 11.3613C4.27441 11.3027 4.21875 11.2354 4.13086 11.209C4.05469 11.1885 3.96973 11.2178 3.94922 11.2764ZM5.24414 11.2266C5.15918 11.2471 5.10059 11.3027 5.10938 11.3701C5.11816 11.4287 5.19434 11.4668 5.28223 11.4463C5.36719 11.4258 5.42578 11.3701 5.41699 11.3115C5.4082 11.2559 5.3291 11.2178 5.24414 11.2266ZM7.17188 0C3.1084 0 0 3.08496 0 7.14844C0 10.3975 2.04492 13.1777 4.96582 14.1562C5.34082 14.2236 5.47266 13.9922 5.47266 13.8018C5.47266 13.6201 5.46387 12.6182 5.46387 12.0029C5.46387 12.0029 3.41309 12.4424 2.98242 11.1299C2.98242 11.1299 2.64844 10.2773 2.16797 10.0576C2.16797 10.0576 1.49707 9.59766 2.21484 9.60645C2.21484 9.60645 2.94434 9.66504 3.3457 10.3623C3.9873 11.4932 5.0625 11.168 5.48145 10.9746C5.54883 10.5059 5.73926 10.1807 5.9502 9.9873C4.3125 9.80566 2.66016 9.56836 2.66016 6.75C2.66016 5.94434 2.88281 5.54004 3.35156 5.02441C3.27539 4.83398 3.02637 4.04883 3.42773 3.03516C4.04004 2.84473 5.44922 3.82617 5.44922 3.82617C6.03516 3.66211 6.66504 3.57715 7.28906 3.57715C7.91309 3.57715 8.54297 3.66211 9.12891 3.82617C9.12891 3.82617 10.5381 2.8418 11.1504 3.03516C11.5518 4.05176 11.3027 4.83398 11.2266 5.02441C11.6953 5.54297 11.9824 5.94727 11.9824 6.75C11.9824 9.57715 10.2568 9.80273 8.61914 9.9873C8.88867 10.2188 9.11719 10.6582 9.11719 11.3467C9.11719 12.334 9.1084 13.5557 9.1084 13.7959C9.1084 13.9863 9.24316 14.2178 9.61523 14.1504C12.5449 13.1777 14.5312 10.3975 14.5312 7.14844C14.5312 3.08496 11.2354 0 7.17188 0ZM2.84766 10.1045C2.80957 10.1338 2.81836 10.2012 2.86816 10.2568C2.91504 10.3037 2.98242 10.3242 3.02051 10.2861C3.05859 10.2568 3.0498 10.1895 3 10.1338C2.95312 10.0869 2.88574 10.0664 2.84766 10.1045ZM2.53125 9.86719C2.51074 9.90527 2.54004 9.95215 2.59863 9.98145C2.64551 10.0107 2.7041 10.002 2.72461 9.96094C2.74512 9.92285 2.71582 9.87598 2.65723 9.84668C2.59863 9.8291 2.55176 9.83789 2.53125 9.86719ZM3.48047 10.9102C3.43359 10.9482 3.45117 11.0361 3.51855 11.0918C3.58594 11.1592 3.6709 11.168 3.70898 11.1211C3.74707 11.083 3.72949 10.9951 3.6709 10.9395C3.60645 10.8721 3.51855 10.8633 3.48047 10.9102ZM3.14648 10.4795C3.09961 10.5088 3.09961 10.585 3.14648 10.6523C3.19336 10.7197 3.27246 10.749 3.31055 10.7197C3.35742 10.6816 3.35742 10.6055 3.31055 10.5381C3.26953 10.4707 3.19336 10.4414 3.14648 10.4795Z" fill="white"/>
</g>
<defs>
<clipPath id="clip0_6_234">
<rect width="15" height="15" fill="white"/>
</clipPath>
</defs>
</svg>
