<svg width="27" height="20" viewBox="0 0 27 20" fill="#FFFFFF" xmlns="http://www.w3.org/2000/svg">
<path d="M4.9703 18.4115C4.32207 17.7632 4.32207 16.7122 4.9703 16.064L19.4934 1.54091C20.1416 0.892679 21.1926 0.892681 21.8408 1.54091C22.4891 2.18914 22.4891 3.24013 21.8408 3.88836L7.31775 18.4115C6.66952 19.0597 5.61853 19.0597 4.9703 18.4115Z" fill="#2FFFFFF"/>
<path d="M5.46328 17.9756C4.81505 17.3273 4.81505 16.2764 5.46328 15.6281L17.6668 3.42464C18.315 2.77641 19.366 2.77641 20.0142 3.42464C20.6624 4.07287 20.6624 5.12386 20.0142 5.77209L7.81073 17.9756C7.1625 18.6238 6.11151 18.6238 5.46328 17.9756Z" fill="#FFFFFF"/>
<rect x="6.32507" y="0.416199" width="23.7198" height="3.3198" rx="1.6599" transform="rotate(45 6.32507 0.416199)" fill="#FFFFFF"/>
</svg>
