<svg width="15" height="15" viewBox="0 0 15 15" fill="none" xmlns="http://www.w3.org/2000/svg">
<path d="M3.87539 13.125H1.1543V4.3623H3.87539V13.125ZM2.51338 3.16699C1.64326 3.16699 0.9375 2.44629 0.9375 1.57617C0.9375 1.15822 1.10353 0.757389 1.39906 0.461854C1.6946 0.16632 2.09543 0.000289917 2.51338 0.000289917C2.93133 0.000289917 3.33216 0.16632 3.62769 0.461854C3.92323 0.757389 4.08926 1.15822 4.08926 1.57617C4.08926 2.44629 3.3832 3.16699 2.51338 3.16699ZM14.0596 13.125H11.3443V8.85937C11.3443 7.84277 11.3238 6.53906 9.92959 6.53906C8.51484 6.53906 8.29805 7.64355 8.29805 8.78613V13.125H5.57988V4.3623H8.18965V5.55761H8.22773C8.59102 4.86914 9.47842 4.14258 10.8023 4.14258C13.5562 4.14258 14.0625 5.95605 14.0625 8.31152V13.125H14.0596Z" fill="white"/>
</svg>
